<svg viewBox="0 0 16 12" xml:space="preserve" xmlns="http://www.w3.org/2000/svg">
    <path style="fill:#00a684;fill-opacity:1"
        d="M1126.16 602.98c-12.31-2.66-23.443-7.888-31.044-14.576l-7.744-6.814-6.026 2.126c-23.338 8.234-73.148 8.98-100.042 1.499-28.348-7.886-47.713-18.16-68.338-36.258-34.525-30.294-53.109-74.39-53.133-126.073-.035-75.987 40.178-134.26 108.764-157.613 24.133-8.217 50.744-10.36 77.617-6.252 53.111 8.12 91.7 32.884 117.627 75.488l6.227 10.233-10.311 7.929c-5.672 4.361-13.647 11.207-17.723 15.213-4.077 4.006-7.57 7.01-7.762 6.675-.193-.335-2.691-5.313-5.552-11.063-19.13-38.445-53.123-61.539-96.554-65.598-12.668-1.184-31.31.895-44.164 4.925-13.254 4.156-31.057 14.252-41.006 23.255-41.086 37.181-53.747 105.65-28.872 156.142 15.298 31.053 42.709 53.923 75.31 62.834 13.996 3.826 49.802 3.796 62.483-.053 4.909-1.49 8.926-3.061 8.926-3.493 0-2.297-8.935-17.793-18.556-32.18-17.669-26.423-31.514-38.933-56.437-50.995l-12.715-6.154 22.51.73c38.99 1.265 57.603 8.936 83.263 34.319l15.737 15.567.864-20.18c1.034-24.162 3.43-33.823 13.473-54.333 11.85-24.202 29.857-46.148 55.262-67.353 35.625-29.736 73.34-49.438 126.18-65.916l17.687-5.516-1.022 13.294c-2.096 27.273-7.775 47.881-20.466 74.264-10.784 22.418-21.954 39.053-36.327 54.103-23.315 24.413-43.512 35.171-76.133 40.554-11.364 1.875-11.531 1.967-6.985 3.849 2.561 1.06 10.527 3.396 17.701 5.19l13.045 3.261-6.59 5.677c-17.238 14.846-44.49 27.275-68.398 31.194-6.403 1.05-11.887 2.078-12.186 2.286-.3.207 3.885 6.884 9.297 14.838 12.13 17.826 38.454 44.491 54.403 55.11 10.44 6.95 11.506 8.075 8.538 9.006-5.316 1.667-53.914 2.353-60.828.859m-18.889-43.915c-1.48-21.396 5.611-50.749 17.496-72.422 7.24-13.203 22.477-35.058 38.343-54.994 14.052-17.656 52.607-57.639 65.507-67.933 4.626-3.69 8.123-6.997 7.773-7.348-.883-.883-23.98 15.37-38.046 26.77-46.86 37.983-86.991 91.233-96.357 127.852-3.216 12.574-3.902 32.559-1.478 43.048 1.571 6.8 5.883 17.834 6.968 17.834.374 0 .281-5.763-.206-12.807"
        transform="matrix(.03538 0 0 .0346 -30.418 -8.892)" />
</svg>